<?xml version="1.0" standalone="no"?><svg xmlns="http://www.w3.org/2000/svg" viewBox="0 0 1440 320"><path fill="#0e2744" fill-opacity="1" d="M0,160L24,154.7C48,149,96,139,144,165.3C192,192,240,256,288,266.7C336,277,384,235,432,234.7C480,235,528,277,576,277.3C624,277,672,235,720,181.3C768,128,816,64,864,53.3C912,43,960,85,1008,96C1056,107,1104,85,1152,80C1200,75,1248,85,1296,80C1344,75,1392,53,1416,42.7L1440,32L1440,0L1416,0C1392,0,1344,0,1296,0C1248,0,1200,0,1152,0C1104,0,1056,0,1008,0C960,0,912,0,864,0C816,0,768,0,720,0C672,0,624,0,576,0C528,0,480,0,432,0C384,0,336,0,288,0C240,0,192,0,144,0C96,0,48,0,24,0L0,0Z"></path></svg>